{
	"materials":[{
		"pbrMetallicRoughness":{
			"baseColorFactor":[0.8,
			0.8,
			0.8,
			1.0],
			"metallicFactor":1.0,
			"roughnessFactor":0.1
		},
		"emissiveFactor":[0.0,
		0.0,
		0.0],
		"alphaMode":"OPAQUE",
		"doubleSided":false,
		"name":"B&O_Chrome"
	},
	{
		"pbrMetallicRoughness":{
			"baseColorFactor":[0.949999988079071,
			0.949999988079071,
			0.949999988079071,
			1.0],
			"metallicFactor":0.0,
			"roughnessFactor":0.5699999588727955
		},
		"emissiveFactor":[0.0,
		0.0,
		0.0],
		"alphaMode":"OPAQUE",
		"doubleSided":false,
		"name":"Plastic Matte"
	},
	{
		"pbrMetallicRoughness":{
			"baseColorFactor":[1.0,
			1.0,
			1.0,
			0.030000000000000028],
			"metallicFactor":1.0,
			"roughnessFactor":1.0
		},
		"emissiveFactor":[0.0,
		0.0,
		0.0],
		"alphaMode":"BLEND",
		"doubleSided":false,
		"name":"Glass"
	},
	{
		"pbrMetallicRoughness":{
			"baseColorFactor":[0.48,
			0.48,
			0.48,
			1.0],
			"metallicFactor":1.0,
			"roughnessFactor":0.67
		},
		"emissiveFactor":[0.0,
		0.0,
		0.0],
		"alphaMode":"OPAQUE",
		"doubleSided":false,
		"name":"Plastic Black - Glossy"
	},
	{
		"pbrMetallicRoughness":{
			"baseColorFactor":[0.1,
			0.1,
			0.1,
			1.0],
			"metallicFactor":1.0,
			"roughnessFactor":0.58
		},
		"emissiveFactor":[0.0,
		0.0,
		0.0],
		"alphaMode":"OPAQUE",
		"doubleSided":false,
		"name":"Plastic Black - Glossy"
	},
	{
		"pbrMetallicRoughness":{
			"baseColorFactor":[0.8,
			0.8,
			0.8,
			1.0],
			"metallicFactor":0.0,
			"roughnessFactor":0.5
		},
		"emissiveFactor":[0.0,
		0.0,
		0.0],
		"alphaMode":"OPAQUE",
		"doubleSided":false,
		"name":"B&O_Metall"
	},
	{
		"pbrMetallicRoughness":{
			"baseColorFactor":[1.0,
			1.0,
			1.0,
			0.030000000000000028],
			"metallicFactor":1.0,
			"roughnessFactor":1.0
		},
		"emissiveFactor":[0.0,
		0.0,
		0.0],
		"alphaMode":"BLEND",
		"doubleSided":false,
		"name":"Glass"
	},
	{
		"pbrMetallicRoughness":{
			"baseColorFactor":[0.8,
			0.8,
			0.8,
			1.0],
			"metallicFactor":0.0,
			"roughnessFactor":0.5
		},
		"emissiveFactor":[0.0,
		0.0,
		0.0],
		"alphaMode":"OPAQUE",
		"doubleSided":false,
		"name":"B&O_Color06"
	},
	{
		"pbrMetallicRoughness":{
			"baseColorFactor":[0.8,
			0.8,
			0.8,
			1.0],
			"metallicFactor":0.0,
			"roughnessFactor":0.5
		},
		"emissiveFactor":[0.0,
		0.0,
		0.0],
		"alphaMode":"OPAQUE",
		"doubleSided":false,
		"name":"B&O_Color05"
	},
	{
		"pbrMetallicRoughness":{
			"baseColorFactor":[0.8,
			0.8,
			0.8,
			1.0],
			"metallicFactor":0.0,
			"roughnessFactor":0.5
		},
		"emissiveFactor":[0.0,
		0.0,
		0.0],
		"alphaMode":"OPAQUE",
		"doubleSided":false,
		"name":"B&O_Color04"
	},
	{
		"pbrMetallicRoughness":{
			"baseColorFactor":[0.8,
			0.8,
			0.8,
			1.0],
			"metallicFactor":0.0,
			"roughnessFactor":0.5
		},
		"emissiveFactor":[0.0,
		0.0,
		0.0],
		"alphaMode":"OPAQUE",
		"doubleSided":false,
		"name":"B&O_Color03"
	},
	{
		"pbrMetallicRoughness":{
			"baseColorFactor":[0.8,
			0.8,
			0.8,
			1.0],
			"metallicFactor":0.0,
			"roughnessFactor":0.5
		},
		"emissiveFactor":[0.0,
		0.0,
		0.0],
		"alphaMode":"OPAQUE",
		"doubleSided":false,
		"name":"B&O_Color01"
	}],
	"asset":{
		"version":"2.0",
		"generator":"Autodesk 3ds Max 2009.0"
	},
	"scenes":[{
		"nodes":[0]
	}],
	"nodes":[{
		"name":"BeoSound9000-01",
		"translation":[1.5358927249908448,
		0.14170165359973908,
		0.7608051300048828],
		"rotation":[0.7071067690849304,
		-0.7071067690849304,
		8.659560603426554e-17,
		4.930380657631324e-32],
		"scale":[1.0,
		1.0,
		1.0],
		"children":[1,
		2,
		3,
		4,
		5,
		6,
		7,
		8]
	},
	{
		"name":"Object17",
		"translation":[-0.10994813591241837,
		-0.01965850405395031,
		0.7111096978187561],
		"rotation":[0.7071071267127991,
		-0.7071064114570618,
		-1.743452315849936e-7,
		-6.757495185638618e-8],
		"scale":[1.0,
		1.0,
		1.0],
		"children":[9,
		10]
	},
	{
		"name":"CD Holder Rods",
		"mesh":0,
		"translation":[0.05560986325144768,
		0.012441406026482582,
		0.6224018931388855],
		"rotation":[-8.97168703772877e-8,
		-0.7071067690849304,
		0.7071067690849304,
		-8.97168703772877e-8],
		"scale":[1.0,
		1.0,
		1.0]
	},
	{
		"name":"Line12",
		"mesh":1,
		"translation":[0.01703515648841858,
		0.012441406026482582,
		0.1655910611152649],
		"rotation":[-0.7071067690849304,
		-2.356080486265455e-8,
		2.356080486265455e-8,
		-0.7071067690849304],
		"scale":[1.0,
		1.0,
		1.0]
	},
	{
		"name":"Object19",
		"translation":[0.05560997501015663,
		0.00584179675206542,
		0.0006741146789863706],
		"rotation":[-0.7071067690849304,
		-2.6341780312577613e-8,
		2.6341780312577613e-8,
		-0.7071067690849304],
		"scale":[1.0,
		1.0,
		1.0],
		"children":[11,
		12,
		13]
	},
	{
		"name":"Box03",
		"mesh":2,
		"translation":[0.04295263811945915,
		-0.0206582173705101,
		0.7607095241546631],
		"rotation":[-2.0573899917053496e-8,
		2.0573905246124015e-8,
		0.7071067094802856,
		0.7071068286895752],
		"scale":[0.9999998807907105,
		0.9999998807907105,
		1.0]
	},
	{
		"name":"CD DECK 3",
		"translation":[-0.07392479479312897,
		0.030313465744256974,
		0.31011906266212466],
		"rotation":[0.0,
		0.0,
		0.0,
		-1.0],
		"scale":[1.0,
		1.0,
		1.0],
		"children":[14,
		15,
		16,
		17,
		18,
		19]
	},
	{
		"name":"CD DECK 2",
		"translation":[-0.07392479479312897,
		0.030313465744256974,
		0.31011906266212466],
		"rotation":[0.0,
		0.0,
		0.0,
		-1.0],
		"scale":[1.0,
		1.0,
		1.0],
		"children":[20,
		21,
		22,
		23,
		24,
		25]
	},
	{
		"name":"CD DECK 1",
		"translation":[0.05560998618602753,
		0.01169140636920929,
		0.2476624846458435],
		"rotation":[0.0,
		0.0,
		0.0,
		-1.0],
		"scale":[1.0,
		1.0,
		1.0],
		"children":[26,
		27,
		28,
		29,
		30,
		31]
	},
	{
		"name":"Object17-Plastic Black - Glossy",
		"mesh":3
	},
	{
		"name":"Object17-Plastic Black - Glossy",
		"mesh":4
	},
	{
		"name":"Object19-B&O_Metall",
		"mesh":5
	},
	{
		"name":"Object19-Glass",
		"mesh":6,
		"translation":[0.05560997501015663,
		0.00584179675206542,
		0.0006741146789863706],
		"rotation":[-0.7071067690849304,
		-2.5809567816281743e-8,
		2.5809567816281743e-8,
		-0.7071067690849304],
		"scale":[1.0,
		1.0,
		1.0]
	},
	{
		"name":"Circle23",
		"mesh":7
	},
	{
		"name":"CD 6.1",
		"translation":[-2.5683067973432403e-17,
		-3.0911003631233719e-16,
		0.312282919883728],
		"rotation":[0.5,
		-0.5,
		0.5,
		0.5],
		"scale":[1.0,
		-0.9999999403953552,
		0.9999999403953552],
		"children":[32,
		33]
	},
	{
		"name":"CD 5.1",
		"translation":[-3.88073240217131e-17,
		-8.173636330432484e-17,
		0.1873697191476822],
		"rotation":[0.5,
		-0.5,
		0.5,
		0.5],
		"scale":[1.0,
		-0.9999999403953552,
		0.9999999403953552],
		"children":[34,
		35]
	},
	{
		"name":"CD 4.1",
		"translation":[-6.614244042325886e-17,
		-3.0911003631233719e-16,
		0.062456585466861728],
		"rotation":[0.5,
		-0.5,
		0.5,
		0.5],
		"scale":[1.0,
		-0.9999999403953552,
		0.9999999403953552],
		"children":[36,
		37]
	},
	{
		"name":"CD 3.1",
		"translation":[-6.50558427357194e-17,
		-3.0911003631233719e-16,
		-0.06245659291744232],
		"rotation":[0.5,
		-0.5,
		0.5,
		0.5],
		"scale":[1.0,
		-0.9999999403953552,
		0.9999999403953552],
		"children":[38,
		39]
	},
	{
		"name":"CD 2.1",
		"translation":[-9.238551298011212e-17,
		-1.900725840012652e-15,
		-0.18741421401500703],
		"rotation":[0.5,
		-0.5,
		0.5,
		0.5],
		"scale":[1.0,
		-0.9999999403953552,
		0.9999999403953552],
		"children":[40,
		41]
	},
	{
		"name":"CD 1.1",
		"translation":[-6.288265397808539e-17,
		-7.638573823283618e-16,
		-0.31228289008140566],
		"rotation":[0.5,
		-0.5,
		0.5,
		0.5],
		"scale":[1.0,
		-0.9999999403953552,
		0.9999999403953552],
		"children":[42,
		43]
	},
	{
		"name":"CD 6.1",
		"translation":[-2.5683067973432403e-17,
		-3.0911003631233719e-16,
		0.312282919883728],
		"rotation":[0.5,
		-0.5,
		0.5,
		0.5],
		"scale":[1.0,
		-0.9999999403953552,
		0.9999999403953552],
		"children":[44,
		45]
	},
	{
		"name":"CD 5.1",
		"translation":[-3.88073240217131e-17,
		-8.173636330432484e-17,
		0.1873697191476822],
		"rotation":[0.5,
		-0.5,
		0.5,
		0.5],
		"scale":[1.0,
		-0.9999999403953552,
		0.9999999403953552],
		"children":[46,
		47]
	},
	{
		"name":"CD 4.1",
		"translation":[-6.614244042325886e-17,
		-3.0911003631233719e-16,
		0.062456585466861728],
		"rotation":[0.5,
		-0.5,
		0.5,
		0.5],
		"scale":[1.0,
		-0.9999999403953552,
		0.9999999403953552],
		"children":[48,
		49]
	},
	{
		"name":"CD 3.1",
		"translation":[-6.50558427357194e-17,
		-3.0911003631233719e-16,
		-0.06245659291744232],
		"rotation":[0.5,
		-0.5,
		0.5,
		0.5],
		"scale":[1.0,
		-0.9999999403953552,
		0.9999999403953552],
		"children":[50,
		51]
	},
	{
		"name":"CD 2.1",
		"translation":[-9.238551298011212e-17,
		-1.900725840012652e-15,
		-0.18741421401500703],
		"rotation":[0.5,
		-0.5,
		0.5,
		0.5],
		"scale":[1.0,
		-0.9999999403953552,
		0.9999999403953552],
		"children":[52,
		53]
	},
	{
		"name":"CD 1.1",
		"translation":[-6.288265397808539e-17,
		-7.638573823283618e-16,
		-0.31228289008140566],
		"rotation":[0.5,
		-0.5,
		0.5,
		0.5],
		"scale":[1.0,
		-0.9999999403953552,
		0.9999999403953552],
		"children":[54,
		55]
	},
	{
		"name":"CD 6",
		"translation":[3.116035027857068e-17,
		-8.173636330432484e-17,
		0.37473949790000918],
		"rotation":[0.5,
		-0.5,
		0.5,
		0.5],
		"scale":[1.0,
		-0.9999999403953552,
		0.9999999403953552],
		"children":[56,
		57]
	},
	{
		"name":"CD 5",
		"translation":[3.825240494469823e-18,
		1.456373097036875e-16,
		0.24982629716396333],
		"rotation":[0.5,
		-0.5,
		0.5,
		0.5],
		"scale":[1.0,
		-0.9999999403953552,
		0.9999999403953552],
		"children":[58,
		59]
	},
	{
		"name":"CD 4",
		"translation":[-9.299022171255778e-18,
		-8.173636330432484e-17,
		0.12491317093372345],
		"rotation":[0.5,
		-0.5,
		0.5,
		0.5],
		"scale":[1.0,
		-0.9999999403953552,
		0.9999999403953552],
		"children":[60,
		61]
	},
	{
		"name":"CD 3",
		"translation":[-2.2423279873897705e-17,
		-8.173636330432484e-17,
		-9.155273872352155e-9],
		"rotation":[0.5,
		-0.5,
		0.5,
		0.5],
		"scale":[1.0,
		-0.9999999403953552,
		0.9999999403953552],
		"children":[62,
		63]
	},
	{
		"name":"CD 2",
		"translation":[-2.1331239337927648e-17,
		-9.912310950410436e-16,
		-0.1249576285481453],
		"rotation":[0.5,
		-0.5,
		0.5,
		0.5],
		"scale":[1.0,
		-0.9999999403953552,
		0.9999999403953552],
		"children":[64,
		65]
	},
	{
		"name":"CD 1",
		"translation":[-2.0250091116263689e-17,
		-5.364837225552393e-16,
		-0.24982629716396333],
		"rotation":[0.5,
		-0.5,
		0.5,
		0.5],
		"scale":[1.0,
		-0.9999999403953552,
		0.9999999403953552],
		"children":[66,
		67]
	},
	{
		"name":"CD 6.1",
		"mesh":8
	},
	{
		"name":"CD 6.1-B&O_Color06",
		"mesh":9
	},
	{
		"name":"CD 5.1",
		"mesh":10
	},
	{
		"name":"CD 5.1-B&O_Color05",
		"mesh":11
	},
	{
		"name":"CD 4.1",
		"mesh":12
	},
	{
		"name":"CD 4.1-B&O_Color04",
		"mesh":13
	},
	{
		"name":"CD 3.1",
		"mesh":14
	},
	{
		"name":"CD 3.1-B&O_Color03",
		"mesh":15
	},
	{
		"name":"CD 2.1",
		"mesh":16
	},
	{
		"name":"CD 2.1-B&O_Color01",
		"mesh":17
	},
	{
		"name":"CD 1.1",
		"mesh":18
	},
	{
		"name":"CD 1.1-B&O_Color01",
		"mesh":19
	},
	{
		"name":"CD 6.1",
		"mesh":20
	},
	{
		"name":"CD 6.1-B&O_Color06",
		"mesh":21
	},
	{
		"name":"CD 5.1",
		"mesh":22
	},
	{
		"name":"CD 5.1-B&O_Color05",
		"mesh":23
	},
	{
		"name":"CD 4.1",
		"mesh":24
	},
	{
		"name":"CD 4.1-B&O_Color04",
		"mesh":25
	},
	{
		"name":"CD 3.1",
		"mesh":26
	},
	{
		"name":"CD 3.1-B&O_Color03",
		"mesh":27
	},
	{
		"name":"CD 2.1",
		"mesh":28
	},
	{
		"name":"CD 2.1-B&O_Color01",
		"mesh":29
	},
	{
		"name":"CD 1.1",
		"mesh":30
	},
	{
		"name":"CD 1.1-B&O_Color01",
		"mesh":31
	},
	{
		"name":"CD 6",
		"mesh":32
	},
	{
		"name":"CD 6-B&O_Color06",
		"mesh":33
	},
	{
		"name":"CD 5",
		"mesh":34
	},
	{
		"name":"CD 5-B&O_Color05",
		"mesh":35
	},
	{
		"name":"CD 4",
		"mesh":36
	},
	{
		"name":"CD 4-B&O_Color04",
		"mesh":37
	},
	{
		"name":"CD 3",
		"mesh":38
	},
	{
		"name":"CD 3-B&O_Color03",
		"mesh":39
	},
	{
		"name":"CD 2",
		"mesh":40
	},
	{
		"name":"CD 2-B&O_Color01",
		"mesh":41
	},
	{
		"name":"CD 1",
		"mesh":42
	},
	{
		"name":"CD 1-B&O_Color01",
		"mesh":43
	}],
	"meshes":[{
		"name":"CD Holder Rods",
		"primitives":[{
			"attributes":{
				"POSITION":1,
				"NORMAL":2
			},
			"indices":0,
			"material":0
		}]
	},
	{
		"name":"Line12",
		"primitives":[{
			"attributes":{
				"POSITION":6,
				"NORMAL":7
			},
			"indices":5,
			"material":1
		}]
	},
	{
		"name":"Box03",
		"primitives":[{
			"attributes":{
				"POSITION":11,
				"NORMAL":12,
				"TEXCOORD_0":13
			},
			"indices":10,
			"material":2
		}]
	},
	{
		"name":"Object17-Plastic Black - Glossy",
		"primitives":[{
			"attributes":{
				"POSITION":21,
				"NORMAL":22
			},
			"indices":20,
			"material":3
		}]
	},
	{
		"name":"Object17-Plastic Black - Glossy",
		"primitives":[{
			"attributes":{
				"POSITION":24,
				"NORMAL":25
			},
			"indices":23,
			"material":4
		}]
	},
	{
		"name":"Object19-B&O_Metall",
		"primitives":[{
			"attributes":{
				"POSITION":27,
				"NORMAL":28
			},
			"indices":26,
			"material":5
		}]
	},
	{
		"name":"Object19-Glass",
		"primitives":[{
			"attributes":{
				"POSITION":30,
				"NORMAL":31
			},
			"indices":29,
			"material":6
		}]
	},
	{
		"name":"Circle23",
		"primitives":[{
			"attributes":{
				"POSITION":35,
				"NORMAL":36
			},
			"indices":34,
			"material":0
		}]
	},
	{
		"name":"CD 6.1",
		"primitives":[{
			"attributes":{
				"POSITION":38,
				"NORMAL":39
			},
			"indices":37
		}]
	},
	{
		"name":"CD 6.1-B&O_Color06",
		"primitives":[{
			"attributes":{
				"POSITION":41,
				"NORMAL":42
			},
			"indices":40,
			"material":7
		}]
	},
	{
		"name":"CD 5.1",
		"primitives":[{
			"attributes":{
				"POSITION":44,
				"NORMAL":45
			},
			"indices":43
		}]
	},
	{
		"name":"CD 5.1-B&O_Color05",
		"primitives":[{
			"attributes":{
				"POSITION":47,
				"NORMAL":48
			},
			"indices":46,
			"material":8
		}]
	},
	{
		"name":"CD 4.1",
		"primitives":[{
			"attributes":{
				"POSITION":50,
				"NORMAL":51
			},
			"indices":49
		}]
	},
	{
		"name":"CD 4.1-B&O_Color04",
		"primitives":[{
			"attributes":{
				"POSITION":53,
				"NORMAL":54
			},
			"indices":52,
			"material":9
		}]
	},
	{
		"name":"CD 3.1",
		"primitives":[{
			"attributes":{
				"POSITION":56,
				"NORMAL":57
			},
			"indices":55
		}]
	},
	{
		"name":"CD 3.1-B&O_Color03",
		"primitives":[{
			"attributes":{
				"POSITION":59,
				"NORMAL":60
			},
			"indices":58,
			"material":10
		}]
	},
	{
		"name":"CD 2.1",
		"primitives":[{
			"attributes":{
				"POSITION":62,
				"NORMAL":63
			},
			"indices":61
		}]
	},
	{
		"name":"CD 2.1-B&O_Color01",
		"primitives":[{
			"attributes":{
				"POSITION":65,
				"NORMAL":66
			},
			"indices":64,
			"material":11
		}]
	},
	{
		"name":"CD 1.1",
		"primitives":[{
			"attributes":{
				"POSITION":68,
				"NORMAL":69
			},
			"indices":67
		}]
	},
	{
		"name":"CD 1.1-B&O_Color01",
		"primitives":[{
			"attributes":{
				"POSITION":71,
				"NORMAL":72
			},
			"indices":70,
			"material":11
		}]
	},
	{
		"name":"CD 6.1",
		"primitives":[{
			"attributes":{
				"POSITION":74,
				"NORMAL":75
			},
			"indices":73
		}]
	},
	{
		"name":"CD 6.1-B&O_Color06",
		"primitives":[{
			"attributes":{
				"POSITION":77,
				"NORMAL":78
			},
			"indices":76,
			"material":7
		}]
	},
	{
		"name":"CD 5.1",
		"primitives":[{
			"attributes":{
				"POSITION":80,
				"NORMAL":81
			},
			"indices":79
		}]
	},
	{
		"name":"CD 5.1-B&O_Color05",
		"primitives":[{
			"attributes":{
				"POSITION":83,
				"NORMAL":84
			},
			"indices":82,
			"material":8
		}]
	},
	{
		"name":"CD 4.1",
		"primitives":[{
			"attributes":{
				"POSITION":86,
				"NORMAL":87
			},
			"indices":85
		}]
	},
	{
		"name":"CD 4.1-B&O_Color04",
		"primitives":[{
			"attributes":{
				"POSITION":89,
				"NORMAL":90
			},
			"indices":88,
			"material":9
		}]
	},
	{
		"name":"CD 3.1",
		"primitives":[{
			"attributes":{
				"POSITION":92,
				"NORMAL":93
			},
			"indices":91
		}]
	},
	{
		"name":"CD 3.1-B&O_Color03",
		"primitives":[{
			"attributes":{
				"POSITION":95,
				"NORMAL":96
			},
			"indices":94,
			"material":10
		}]
	},
	{
		"name":"CD 2.1",
		"primitives":[{
			"attributes":{
				"POSITION":98,
				"NORMAL":99
			},
			"indices":97
		}]
	},
	{
		"name":"CD 2.1-B&O_Color01",
		"primitives":[{
			"attributes":{
				"POSITION":101,
				"NORMAL":102
			},
			"indices":100,
			"material":11
		}]
	},
	{
		"name":"CD 1.1",
		"primitives":[{
			"attributes":{
				"POSITION":104,
				"NORMAL":105
			},
			"indices":103
		}]
	},
	{
		"name":"CD 1.1-B&O_Color01",
		"primitives":[{
			"attributes":{
				"POSITION":107,
				"NORMAL":108
			},
			"indices":106,
			"material":11
		}]
	},
	{
		"name":"CD 6",
		"primitives":[{
			"attributes":{
				"POSITION":110,
				"NORMAL":111
			},
			"indices":109
		}]
	},
	{
		"name":"CD 6-B&O_Color06",
		"primitives":[{
			"attributes":{
				"POSITION":113,
				"NORMAL":114
			},
			"indices":112,
			"material":7
		}]
	},
	{
		"name":"CD 5",
		"primitives":[{
			"attributes":{
				"POSITION":116,
				"NORMAL":117
			},
			"indices":115
		}]
	},
	{
		"name":"CD 5-B&O_Color05",
		"primitives":[{
			"attributes":{
				"POSITION":119,
				"NORMAL":120
			},
			"indices":118,
			"material":8
		}]
	},
	{
		"name":"CD 4",
		"primitives":[{
			"attributes":{
				"POSITION":122,
				"NORMAL":123
			},
			"indices":121
		}]
	},
	{
		"name":"CD 4-B&O_Color04",
		"primitives":[{
			"attributes":{
				"POSITION":125,
				"NORMAL":126
			},
			"indices":124,
			"material":9
		}]
	},
	{
		"name":"CD 3",
		"primitives":[{
			"attributes":{
				"POSITION":128,
				"NORMAL":129
			},
			"indices":127
		}]
	},
	{
		"name":"CD 3-B&O_Color03",
		"primitives":[{
			"attributes":{
				"POSITION":131,
				"NORMAL":132
			},
			"indices":130,
			"material":10
		}]
	},
	{
		"name":"CD 2",
		"primitives":[{
			"attributes":{
				"POSITION":134,
				"NORMAL":135
			},
			"indices":133
		}]
	},
	{
		"name":"CD 2-B&O_Color01",
		"primitives":[{
			"attributes":{
				"POSITION":137,
				"NORMAL":138
			},
			"indices":136,
			"material":11
		}]
	},
	{
		"name":"CD 1",
		"primitives":[{
			"attributes":{
				"POSITION":140,
				"NORMAL":141
			},
			"indices":139
		}]
	},
	{
		"name":"CD 1-B&O_Color01",
		"primitives":[{
			"attributes":{
				"POSITION":143,
				"NORMAL":144
			},
			"indices":142,
			"material":11
		}]
	}],
	"accessors":[{
		"type":"SCALAR",
		"bufferView":0,
		"componentType":5123,
		"count":7704,
		"byteOffset":0,
		"min":[0],
		"max":[1511]
	},
	{
		"type":"VEC3",
		"bufferView":1,
		"componentType":5126,
		"count":1512,
		"byteOffset":0,
		"min":[-0.007499999832361937,
		-0.007499999832361937,
		-0.018000001087784768],
		"max":[0.007500003091990948,
		0.6320654153823853,
		0.004000000189989805]
	},
	{
		"type":"VEC3",
		"bufferView":1,
		"componentType":5126,
		"count":1512,
		"byteOffset":12,
		"min":[-0.9995527267456055,
		-0.9995527267456055,
		-1.0],
		"max":[0.9995527267456055,
		0.9995527267456055,
		0.999335527420044]
	},
	{
		"type":"SCALAR",
		"bufferView":2,
		"componentType":5126,
		"count":201,
		"byteOffset":0,
		"min":[0.0],
		"max":[6.666666507720947]
	},
	{
		"type":"VEC3",
		"bufferView":2,
		"componentType":5126,
		"count":201,
		"byteOffset":804,
		"min":[0.05560986325144768,
		0.012441406026482582,
		0.6224018931388855],
		"max":[0.05560986325144768,
		0.03533066436648369,
		0.6224018931388855]
	},
	{
		"type":"SCALAR",
		"bufferView":3,
		"componentType":5123,
		"count":8520,
		"byteOffset":0,
		"min":[0],
		"max":[3032]
	},
	{
		"type":"VEC3",
		"bufferView":4,
		"componentType":5126,
		"count":3033,
		"byteOffset":0,
		"min":[-0.08298315107822418,
		-0.3048814535140991,
		-0.017999999225139619],
		"max":[0.13481812179088593,
		0.595118522644043,
		0.006000000052154064]
	},
	{
		"type":"VEC3",
		"bufferView":4,
		"componentType":5126,
		"count":3033,
		"byteOffset":12,
		"min":[-1.0,
		-1.0,
		-1.0],
		"max":[1.0,
		1.0,
		1.0]
	},
	{
		"type":"SCALAR",
		"bufferView":5,
		"componentType":5126,
		"count":201,
		"byteOffset":0,
		"min":[0.0],
		"max":[6.666666507720947]
	},
	{
		"type":"VEC3",
		"bufferView":5,
		"componentType":5126,
		"count":201,
		"byteOffset":804,
		"min":[0.05560997501015663,
		0.00584179675206542,
		0.0006741146789863706],
		"max":[0.05561002343893051,
		0.00584179675206542,
		0.6200420260429382]
	},
	{
		"type":"SCALAR",
		"bufferView":6,
		"componentType":5123,
		"count":132,
		"byteOffset":0,
		"min":[0],
		"max":[95]
	},
	{
		"type":"VEC3",
		"bufferView":7,
		"componentType":5126,
		"count":96,
		"byteOffset":0,
		"min":[-0.002499969443306327,
		-0.10890064388513565,
		-0.8999999761581421],
		"max":[0.0029999695252627136,
		0.10890063643455506,
		0.0]
	},
	{
		"type":"VEC3",
		"bufferView":7,
		"componentType":5126,
		"count":96,
		"byteOffset":12,
		"min":[-1.0,
		-1.0,
		-1.0],
		"max":[1.0,
		1.0,
		1.0]
	},
	{
		"type":"VEC2",
		"bufferView":7,
		"componentType":5126,
		"count":96,
		"byteOffset":24,
		"min":[0.002295670798048377,
		0.0005555152893066406],
		"max":[0.9977043271064758,
		0.9994443655014038]
	},
	{
		"type":"SCALAR",
		"bufferView":8,
		"componentType":5126,
		"count":201,
		"byteOffset":0,
		"min":[0.0],
		"max":[6.666666507720947]
	},
	{
		"type":"VEC3",
		"bufferView":8,
		"componentType":5126,
		"count":201,
		"byteOffset":804,
		"min":[-0.07392479479312897,
		0.01169140636920929,
		0.31011906266212466],
		"max":[0.05560998618602753,
		0.030313465744256974,
		0.31011906266212466]
	},
	{
		"type":"SCALAR",
		"bufferView":9,
		"componentType":5126,
		"count":201,
		"byteOffset":0,
		"min":[0.0],
		"max":[6.666666507720947]
	},
	{
		"type":"VEC3",
		"bufferView":9,
		"componentType":5126,
		"count":201,
		"byteOffset":804,
		"min":[-0.07392479479312897,
		0.01169140636920929,
		0.31011906266212466],
		"max":[0.05560998618602753,
		0.030313465744256974,
		0.31011906266212466]
	},
	{
		"type":"SCALAR",
		"bufferView":10,
		"componentType":5126,
		"count":201,
		"byteOffset":0,
		"min":[0.0],
		"max":[6.666666507720947]
	},
	{
		"type":"VEC3",
		"bufferView":10,
		"componentType":5126,
		"count":201,
		"byteOffset":804,
		"min":[0.05560998618602753,
		0.01169140636920929,
		0.2476624846458435],
		"max":[0.05560998618602753,
		0.037568364292383197,
		0.2476624846458435]
	},
	{
		"type":"SCALAR",
		"bufferView":11,
		"componentType":5123,
		"count":1146,
		"byteOffset":0,
		"min":[0],
		"max":[755]
	},
	{
		"type":"VEC3",
		"bufferView":12,
		"componentType":5126,
		"count":756,
		"byteOffset":0,
		"min":[-0.06650000065565109,
		-0.25099992752075198,
		-3.051757957450718e-8],
		"max":[0.0024999992456287147,
		0.039000045508146289,
		0.800000011920929]
	},
	{
		"type":"VEC3",
		"bufferView":12,
		"componentType":5126,
		"count":756,
		"byteOffset":12,
		"min":[-1.0,
		-1.0,
		-1.0],
		"max":[1.0,
		1.0,
		1.0]
	},
	{
		"type":"SCALAR",
		"bufferView":13,
		"componentType":5123,
		"count":6,
		"byteOffset":0,
		"min":[0],
		"max":[3]
	},
	{
		"type":"VEC3",
		"bufferView":14,
		"componentType":5126,
		"count":4,
		"byteOffset":0,
		"min":[-0.00249998876824975,
		-0.07999996095895767,
		0.0009999999310821295],
		"max":[-0.002499984810128808,
		0.03791678696870804,
		0.7990000247955322]
	},
	{
		"type":"VEC3",
		"bufferView":14,
		"componentType":5126,
		"count":4,
		"byteOffset":12,
		"min":[1.0,
		0.0,
		0.0],
		"max":[1.0,
		0.0,
		0.0]
	},
	{
		"type":"SCALAR",
		"bufferView":15,
		"componentType":5123,
		"count":246,
		"byteOffset":0,
		"min":[0],
		"max":[155]
	},
	{
		"type":"VEC3",
		"bufferView":16,
		"componentType":5126,
		"count":156,
		"byteOffset":0,
		"min":[-0.08455810695886612,
		-0.05999999865889549,
		-1.9170829854142647e-11],
		"max":[0.006532448343932629,
		0.05999999865889549,
		0.009999999776482582]
	},
	{
		"type":"VEC3",
		"bufferView":16,
		"componentType":5126,
		"count":156,
		"byteOffset":12,
		"min":[-1.0,
		-1.0,
		-1.0],
		"max":[0.038094572722911838,
		1.0,
		1.0]
	},
	{
		"type":"SCALAR",
		"bufferView":17,
		"componentType":5123,
		"count":738,
		"byteOffset":0,
		"min":[0],
		"max":[255]
	},
	{
		"type":"VEC3",
		"bufferView":18,
		"componentType":5126,
		"count":256,
		"byteOffset":0,
		"min":[-0.000026960933610098438,
		-0.05999999865889549,
		-1.4520498789905718e-13],
		"max":[0.05999999865889549,
		0.05999999865889549,
		0.009999999776482582]
	},
	{
		"type":"VEC3",
		"bufferView":18,
		"componentType":5126,
		"count":256,
		"byteOffset":12,
		"min":[0.0,
		-0.9985476732254028,
		-1.0],
		"max":[0.9998385906219482,
		0.9985476732254028,
		1.0]
	},
	{
		"type":"SCALAR",
		"bufferView":19,
		"componentType":5126,
		"count":201,
		"byteOffset":0,
		"min":[0.0],
		"max":[6.666666507720947]
	},
	{
		"type":"VEC3",
		"bufferView":19,
		"componentType":5126,
		"count":201,
		"byteOffset":804,
		"min":[0.05560997501015663,
		0.00584179675206542,
		0.0006741146789863706],
		"max":[0.05561002343893051,
		0.00584179675206542,
		0.6200420260429382]
	},
	{
		"type":"SCALAR",
		"bufferView":20,
		"componentType":5123,
		"count":2868,
		"byteOffset":0,
		"min":[0],
		"max":[779]
	},
	{
		"type":"VEC3",
		"bufferView":21,
		"componentType":5126,
		"count":780,
		"byteOffset":0,
		"min":[-0.0430000014603138,
		-0.0430000014603138,
		0.010999999940395356],
		"max":[0.0430000014603138,
		0.0430000014603138,
		0.014999999664723874]
	},
	{
		"type":"VEC3",
		"bufferView":21,
		"componentType":5126,
		"count":780,
		"byteOffset":12,
		"min":[-0.9949608445167542,
		-0.9949608445167542,
		-0.9982591867446899],
		"max":[0.9949608445167542,
		0.9949608445167542,
		1.0]
	},
	{
		"type":"SCALAR",
		"bufferView":22,
		"componentType":5123,
		"count":876,
		"byteOffset":0,
		"min":[0],
		"max":[313]
	},
	{
		"type":"VEC3",
		"bufferView":23,
		"componentType":5126,
		"count":314,
		"byteOffset":0,
		"min":[-0.01607958972454071,
		-0.016079604625701906,
		-0.000750000006519258],
		"max":[0.01607958972454071,
		0.016079604625701906,
		0.000750000006519258]
	},
	{
		"type":"VEC3",
		"bufferView":23,
		"componentType":5126,
		"count":314,
		"byteOffset":12,
		"min":[-0.997738242149353,
		-1.0,
		-1.0],
		"max":[0.997738242149353,
		1.0,
		1.0]
	},
	{
		"type":"SCALAR",
		"bufferView":24,
		"componentType":5123,
		"count":1584,
		"byteOffset":0,
		"min":[0],
		"max":[565]
	},
	{
		"type":"VEC3",
		"bufferView":25,
		"componentType":5126,
		"count":566,
		"byteOffset":0,
		"min":[-0.05900000035762787,
		-0.05900000035762787,
		-0.000750000006519258],
		"max":[0.05900000035762787,
		0.05900000035762787,
		0.000750000006519258]
	},
	{
		"type":"VEC3",
		"bufferView":25,
		"componentType":5126,
		"count":566,
		"byteOffset":12,
		"min":[-0.997738242149353,
		-1.0,
		-1.0],
		"max":[0.9994314312934876,
		1.0,
		1.0]
	},
	{
		"type":"SCALAR",
		"bufferView":26,
		"componentType":5123,
		"count":876,
		"byteOffset":0,
		"min":[0],
		"max":[313]
	},
	{
		"type":"VEC3",
		"bufferView":27,
		"componentType":5126,
		"count":314,
		"byteOffset":0,
		"min":[-0.016079604625701906,
		-0.016079604625701906,
		-0.000750000006519258],
		"max":[0.01607963629066944,
		0.016079604625701906,
		0.000750000006519258]
	},
	{
		"type":"VEC3",
		"bufferView":27,
		"componentType":5126,
		"count":314,
		"byteOffset":12,
		"min":[-0.9977360963821411,
		-1.0,
		-1.0],
		"max":[0.9977360963821411,
		1.0,
		1.0]
	},
	{
		"type":"SCALAR",
		"bufferView":28,
		"componentType":5123,
		"count":1398,
		"byteOffset":0,
		"min":[0],
		"max":[495]
	},
	{
		"type":"VEC3",
		"bufferView":29,
		"componentType":5126,
		"count":496,
		"byteOffset":0,
		"min":[-0.058999985456466678,
		-0.05900000035762787,
		-0.000750000006519258],
		"max":[0.058999985456466678,
		0.05900000035762787,
		0.000750000006519258]
	},
	{
		"type":"VEC3",
		"bufferView":29,
		"componentType":5126,
		"count":496,
		"byteOffset":12,
		"min":[-0.9977360963821411,
		-1.0,
		-1.0],
		"max":[0.9977360963821411,
		1.0,
		1.0]
	},
	{
		"type":"SCALAR",
		"bufferView":30,
		"componentType":5123,
		"count":876,
		"byteOffset":0,
		"min":[0],
		"max":[315]
	},
	{
		"type":"VEC3",
		"bufferView":31,
		"componentType":5126,
		"count":316,
		"byteOffset":0,
		"min":[-0.016079619526863099,
		-0.016079604625701906,
		-0.000750000006519258],
		"max":[0.016079619526863099,
		0.016079604625701906,
		0.000750000006519258]
	},
	{
		"type":"VEC3",
		"bufferView":31,
		"componentType":5126,
		"count":316,
		"byteOffset":12,
		"min":[-0.9977360963821411,
		-1.0,
		-1.0],
		"max":[0.997738242149353,
		1.0,
		1.0]
	},
	{
		"type":"SCALAR",
		"bufferView":32,
		"componentType":5123,
		"count":1464,
		"byteOffset":0,
		"min":[0],
		"max":[519]
	},
	{
		"type":"VEC3",
		"bufferView":33,
		"componentType":5126,
		"count":520,
		"byteOffset":0,
		"min":[-0.05900000035762787,
		-0.05900000035762787,
		-0.000750000006519258],
		"max":[0.05900000035762787,
		0.05900000035762787,
		0.000750000006519258]
	},
	{
		"type":"VEC3",
		"bufferView":33,
		"componentType":5126,
		"count":520,
		"byteOffset":12,
		"min":[-0.997738242149353,
		-1.0,
		-1.0],
		"max":[0.9977360963821411,
		1.0,
		1.0]
	},
	{
		"type":"SCALAR",
		"bufferView":34,
		"componentType":5123,
		"count":876,
		"byteOffset":0,
		"min":[0],
		"max":[313]
	},
	{
		"type":"VEC3",
		"bufferView":35,
		"componentType":5126,
		"count":314,
		"byteOffset":0,
		"min":[-0.016079604625701906,
		-0.016079604625701906,
		-0.000750000006519258],
		"max":[0.016079619526863099,
		0.016079604625701906,
		0.000750000006519258]
	},
	{
		"type":"VEC3",
		"bufferView":35,
		"componentType":5126,
		"count":314,
		"byteOffset":12,
		"min":[-0.997738242149353,
		-1.0,
		-1.0],
		"max":[0.997738242149353,
		1.0,
		1.0]
	},
	{
		"type":"SCALAR",
		"bufferView":36,
		"componentType":5123,
		"count":1632,
		"byteOffset":0,
		"min":[0],
		"max":[583]
	},
	{
		"type":"VEC3",
		"bufferView":37,
		"componentType":5126,
		"count":584,
		"byteOffset":0,
		"min":[-0.05900000035762787,
		-0.05900000035762787,
		-0.000750000006519258],
		"max":[0.05900000035762787,
		0.05900000035762787,
		0.000750000006519258]
	},
	{
		"type":"VEC3",
		"bufferView":37,
		"componentType":5126,
		"count":584,
		"byteOffset":12,
		"min":[-0.997738242149353,
		-1.0,
		-1.0],
		"max":[0.9994314312934876,
		1.0,
		1.0]
	},
	{
		"type":"SCALAR",
		"bufferView":38,
		"componentType":5123,
		"count":876,
		"byteOffset":0,
		"min":[0],
		"max":[315]
	},
	{
		"type":"VEC3",
		"bufferView":39,
		"componentType":5126,
		"count":316,
		"byteOffset":0,
		"min":[-0.016079604625701906,
		-0.016079604625701906,
		-0.000750000006519258],
		"max":[0.0160796120762825,
		0.016079604625701906,
		0.000750000006519258]
	},
	{
		"type":"VEC3",
		"bufferView":39,
		"componentType":5126,
		"count":316,
		"byteOffset":12,
		"min":[-0.997738242149353,
		-1.0,
		-1.0],
		"max":[0.997738242149353,
		1.0,
		1.0]
	},
	{
		"type":"SCALAR",
		"bufferView":40,
		"componentType":5123,
		"count":1650,
		"byteOffset":0,
		"min":[0],
		"max":[593]
	},
	{
		"type":"VEC3",
		"bufferView":41,
		"componentType":5126,
		"count":594,
		"byteOffset":0,
		"min":[-0.05900000035762787,
		-0.05900000035762787,
		-0.000750000006519258],
		"max":[0.05900000035762787,
		0.05900000035762787,
		0.000750000006519258]
	},
	{
		"type":"VEC3",
		"bufferView":41,
		"componentType":5126,
		"count":594,
		"byteOffset":12,
		"min":[-0.9994314312934876,
		-1.0,
		-1.0],
		"max":[0.997738242149353,
		1.0,
		1.0]
	},
	{
		"type":"SCALAR",
		"bufferView":42,
		"componentType":5123,
		"count":876,
		"byteOffset":0,
		"min":[0],
		"max":[315]
	},
	{
		"type":"VEC3",
		"bufferView":43,
		"componentType":5126,
		"count":316,
		"byteOffset":0,
		"min":[-0.016079604625701906,
		-0.016079604625701906,
		-0.000750000006519258],
		"max":[0.0160796120762825,
		0.016079604625701906,
		0.000750000006519258]
	},
	{
		"type":"VEC3",
		"bufferView":43,
		"componentType":5126,
		"count":316,
		"byteOffset":12,
		"min":[-0.997738242149353,
		-1.0,
		-1.0],
		"max":[0.997738242149353,
		1.0,
		1.0]
	},
	{
		"type":"SCALAR",
		"bufferView":44,
		"componentType":5123,
		"count":1650,
		"byteOffset":0,
		"min":[0],
		"max":[593]
	},
	{
		"type":"VEC3",
		"bufferView":45,
		"componentType":5126,
		"count":594,
		"byteOffset":0,
		"min":[-0.05900000035762787,
		-0.05900000035762787,
		-0.000750000006519258],
		"max":[0.05900000035762787,
		0.05900000035762787,
		0.000750000006519258]
	},
	{
		"type":"VEC3",
		"bufferView":45,
		"componentType":5126,
		"count":594,
		"byteOffset":12,
		"min":[-0.9994314312934876,
		-1.0,
		-1.0],
		"max":[0.997738242149353,
		1.0,
		1.0]
	},
	{
		"type":"SCALAR",
		"bufferView":46,
		"componentType":5123,
		"count":876,
		"byteOffset":0,
		"min":[0],
		"max":[313]
	},
	{
		"type":"VEC3",
		"bufferView":47,
		"componentType":5126,
		"count":314,
		"byteOffset":0,
		"min":[-0.01607958972454071,
		-0.016079604625701906,
		-0.000750000006519258],
		"max":[0.01607958972454071,
		0.016079604625701906,
		0.000750000006519258]
	},
	{
		"type":"VEC3",
		"bufferView":47,
		"componentType":5126,
		"count":314,
		"byteOffset":12,
		"min":[-0.997738242149353,
		-1.0,
		-1.0],
		"max":[0.997738242149353,
		1.0,
		1.0]
	},
	{
		"type":"SCALAR",
		"bufferView":48,
		"componentType":5123,
		"count":1584,
		"byteOffset":0,
		"min":[0],
		"max":[565]
	},
	{
		"type":"VEC3",
		"bufferView":49,
		"componentType":5126,
		"count":566,
		"byteOffset":0,
		"min":[-0.05900000035762787,
		-0.05900000035762787,
		-0.000750000006519258],
		"max":[0.05900000035762787,
		0.05900000035762787,
		0.000750000006519258]
	},
	{
		"type":"VEC3",
		"bufferView":49,
		"componentType":5126,
		"count":566,
		"byteOffset":12,
		"min":[-0.997738242149353,
		-1.0,
		-1.0],
		"max":[0.9994314312934876,
		1.0,
		1.0]
	},
	{
		"type":"SCALAR",
		"bufferView":50,
		"componentType":5123,
		"count":876,
		"byteOffset":0,
		"min":[0],
		"max":[313]
	},
	{
		"type":"VEC3",
		"bufferView":51,
		"componentType":5126,
		"count":314,
		"byteOffset":0,
		"min":[-0.016079604625701906,
		-0.016079604625701906,
		-0.000750000006519258],
		"max":[0.01607963629066944,
		0.016079604625701906,
		0.000750000006519258]
	},
	{
		"type":"VEC3",
		"bufferView":51,
		"componentType":5126,
		"count":314,
		"byteOffset":12,
		"min":[-0.9977360963821411,
		-1.0,
		-1.0],
		"max":[0.9977360963821411,
		1.0,
		1.0]
	},
	{
		"type":"SCALAR",
		"bufferView":52,
		"componentType":5123,
		"count":1398,
		"byteOffset":0,
		"min":[0],
		"max":[495]
	},
	{
		"type":"VEC3",
		"bufferView":53,
		"componentType":5126,
		"count":496,
		"byteOffset":0,
		"min":[-0.058999985456466678,
		-0.05900000035762787,
		-0.000750000006519258],
		"max":[0.058999985456466678,
		0.05900000035762787,
		0.000750000006519258]
	},
	{
		"type":"VEC3",
		"bufferView":53,
		"componentType":5126,
		"count":496,
		"byteOffset":12,
		"min":[-0.9977360963821411,
		-1.0,
		-1.0],
		"max":[0.9977360963821411,
		1.0,
		1.0]
	},
	{
		"type":"SCALAR",
		"bufferView":54,
		"componentType":5123,
		"count":876,
		"byteOffset":0,
		"min":[0],
		"max":[315]
	},
	{
		"type":"VEC3",
		"bufferView":55,
		"componentType":5126,
		"count":316,
		"byteOffset":0,
		"min":[-0.016079619526863099,
		-0.016079604625701906,
		-0.000750000006519258],
		"max":[0.016079619526863099,
		0.016079604625701906,
		0.000750000006519258]
	},
	{
		"type":"VEC3",
		"bufferView":55,
		"componentType":5126,
		"count":316,
		"byteOffset":12,
		"min":[-0.9977360963821411,
		-1.0,
		-1.0],
		"max":[0.997738242149353,
		1.0,
		1.0]
	},
	{
		"type":"SCALAR",
		"bufferView":56,
		"componentType":5123,
		"count":1464,
		"byteOffset":0,
		"min":[0],
		"max":[519]
	},
	{
		"type":"VEC3",
		"bufferView":57,
		"componentType":5126,
		"count":520,
		"byteOffset":0,
		"min":[-0.05900000035762787,
		-0.05900000035762787,
		-0.000750000006519258],
		"max":[0.05900000035762787,
		0.05900000035762787,
		0.000750000006519258]
	},
	{
		"type":"VEC3",
		"bufferView":57,
		"componentType":5126,
		"count":520,
		"byteOffset":12,
		"min":[-0.997738242149353,
		-1.0,
		-1.0],
		"max":[0.9977360963821411,
		1.0,
		1.0]
	},
	{
		"type":"SCALAR",
		"bufferView":58,
		"componentType":5123,
		"count":876,
		"byteOffset":0,
		"min":[0],
		"max":[313]
	},
	{
		"type":"VEC3",
		"bufferView":59,
		"componentType":5126,
		"count":314,
		"byteOffset":0,
		"min":[-0.016079604625701906,
		-0.016079604625701906,
		-0.000750000006519258],
		"max":[0.016079619526863099,
		0.016079604625701906,
		0.000750000006519258]
	},
	{
		"type":"VEC3",
		"bufferView":59,
		"componentType":5126,
		"count":314,
		"byteOffset":12,
		"min":[-0.997738242149353,
		-1.0,
		-1.0],
		"max":[0.997738242149353,
		1.0,
		1.0]
	},
	{
		"type":"SCALAR",
		"bufferView":60,
		"componentType":5123,
		"count":1632,
		"byteOffset":0,
		"min":[0],
		"max":[583]
	},
	{
		"type":"VEC3",
		"bufferView":61,
		"componentType":5126,
		"count":584,
		"byteOffset":0,
		"min":[-0.05900000035762787,
		-0.05900000035762787,
		-0.000750000006519258],
		"max":[0.05900000035762787,
		0.05900000035762787,
		0.000750000006519258]
	},
	{
		"type":"VEC3",
		"bufferView":61,
		"componentType":5126,
		"count":584,
		"byteOffset":12,
		"min":[-0.997738242149353,
		-1.0,
		-1.0],
		"max":[0.9994314312934876,
		1.0,
		1.0]
	},
	{
		"type":"SCALAR",
		"bufferView":62,
		"componentType":5123,
		"count":876,
		"byteOffset":0,
		"min":[0],
		"max":[315]
	},
	{
		"type":"VEC3",
		"bufferView":63,
		"componentType":5126,
		"count":316,
		"byteOffset":0,
		"min":[-0.016079604625701906,
		-0.016079604625701906,
		-0.000750000006519258],
		"max":[0.0160796120762825,
		0.016079604625701906,
		0.000750000006519258]
	},
	{
		"type":"VEC3",
		"bufferView":63,
		"componentType":5126,
		"count":316,
		"byteOffset":12,
		"min":[-0.997738242149353,
		-1.0,
		-1.0],
		"max":[0.997738242149353,
		1.0,
		1.0]
	},
	{
		"type":"SCALAR",
		"bufferView":64,
		"componentType":5123,
		"count":1650,
		"byteOffset":0,
		"min":[0],
		"max":[593]
	},
	{
		"type":"VEC3",
		"bufferView":65,
		"componentType":5126,
		"count":594,
		"byteOffset":0,
		"min":[-0.05900000035762787,
		-0.05900000035762787,
		-0.000750000006519258],
		"max":[0.05900000035762787,
		0.05900000035762787,
		0.000750000006519258]
	},
	{
		"type":"VEC3",
		"bufferView":65,
		"componentType":5126,
		"count":594,
		"byteOffset":12,
		"min":[-0.9994314312934876,
		-1.0,
		-1.0],
		"max":[0.997738242149353,
		1.0,
		1.0]
	},
	{
		"type":"SCALAR",
		"bufferView":66,
		"componentType":5123,
		"count":876,
		"byteOffset":0,
		"min":[0],
		"max":[315]
	},
	{
		"type":"VEC3",
		"bufferView":67,
		"componentType":5126,
		"count":316,
		"byteOffset":0,
		"min":[-0.016079604625701906,
		-0.016079604625701906,
		-0.000750000006519258],
		"max":[0.0160796120762825,
		0.016079604625701906,
		0.000750000006519258]
	},
	{
		"type":"VEC3",
		"bufferView":67,
		"componentType":5126,
		"count":316,
		"byteOffset":12,
		"min":[-0.997738242149353,
		-1.0,
		-1.0],
		"max":[0.997738242149353,
		1.0,
		1.0]
	},
	{
		"type":"SCALAR",
		"bufferView":68,
		"componentType":5123,
		"count":1650,
		"byteOffset":0,
		"min":[0],
		"max":[593]
	},
	{
		"type":"VEC3",
		"bufferView":69,
		"componentType":5126,
		"count":594,
		"byteOffset":0,
		"min":[-0.05900000035762787,
		-0.05900000035762787,
		-0.000750000006519258],
		"max":[0.05900000035762787,
		0.05900000035762787,
		0.000750000006519258]
	},
	{
		"type":"VEC3",
		"bufferView":69,
		"componentType":5126,
		"count":594,
		"byteOffset":12,
		"min":[-0.9994314312934876,
		-1.0,
		-1.0],
		"max":[0.997738242149353,
		1.0,
		1.0]
	},
	{
		"type":"SCALAR",
		"bufferView":70,
		"componentType":5123,
		"count":876,
		"byteOffset":0,
		"min":[0],
		"max":[313]
	},
	{
		"type":"VEC3",
		"bufferView":71,
		"componentType":5126,
		"count":314,
		"byteOffset":0,
		"min":[-0.01607958972454071,
		-0.016079604625701906,
		-0.000750000006519258],
		"max":[0.01607958972454071,
		0.016079604625701906,
		0.000750000006519258]
	},
	{
		"type":"VEC3",
		"bufferView":71,
		"componentType":5126,
		"count":314,
		"byteOffset":12,
		"min":[-0.997738242149353,
		-1.0,
		-1.0],
		"max":[0.997738242149353,
		1.0,
		1.0]
	},
	{
		"type":"SCALAR",
		"bufferView":72,
		"componentType":5123,
		"count":1584,
		"byteOffset":0,
		"min":[0],
		"max":[565]
	},
	{
		"type":"VEC3",
		"bufferView":73,
		"componentType":5126,
		"count":566,
		"byteOffset":0,
		"min":[-0.05900000035762787,
		-0.05900000035762787,
		-0.000750000006519258],
		"max":[0.05900000035762787,
		0.05900000035762787,
		0.000750000006519258]
	},
	{
		"type":"VEC3",
		"bufferView":73,
		"componentType":5126,
		"count":566,
		"byteOffset":12,
		"min":[-0.997738242149353,
		-1.0,
		-1.0],
		"max":[0.9994314312934876,
		1.0,
		1.0]
	},
	{
		"type":"SCALAR",
		"bufferView":74,
		"componentType":5123,
		"count":876,
		"byteOffset":0,
		"min":[0],
		"max":[313]
	},
	{
		"type":"VEC3",
		"bufferView":75,
		"componentType":5126,
		"count":314,
		"byteOffset":0,
		"min":[-0.016079604625701906,
		-0.016079604625701906,
		-0.000750000006519258],
		"max":[0.01607963629066944,
		0.016079604625701906,
		0.000750000006519258]
	},
	{
		"type":"VEC3",
		"bufferView":75,
		"componentType":5126,
		"count":314,
		"byteOffset":12,
		"min":[-0.9977360963821411,
		-1.0,
		-1.0],
		"max":[0.9977360963821411,
		1.0,
		1.0]
	},
	{
		"type":"SCALAR",
		"bufferView":76,
		"componentType":5123,
		"count":1398,
		"byteOffset":0,
		"min":[0],
		"max":[495]
	},
	{
		"type":"VEC3",
		"bufferView":77,
		"componentType":5126,
		"count":496,
		"byteOffset":0,
		"min":[-0.058999985456466678,
		-0.05900000035762787,
		-0.000750000006519258],
		"max":[0.058999985456466678,
		0.05900000035762787,
		0.000750000006519258]
	},
	{
		"type":"VEC3",
		"bufferView":77,
		"componentType":5126,
		"count":496,
		"byteOffset":12,
		"min":[-0.9977360963821411,
		-1.0,
		-1.0],
		"max":[0.9977360963821411,
		1.0,
		1.0]
	},
	{
		"type":"SCALAR",
		"bufferView":78,
		"componentType":5123,
		"count":876,
		"byteOffset":0,
		"min":[0],
		"max":[315]
	},
	{
		"type":"VEC3",
		"bufferView":79,
		"componentType":5126,
		"count":316,
		"byteOffset":0,
		"min":[-0.016079619526863099,
		-0.016079604625701906,
		-0.000750000006519258],
		"max":[0.016079619526863099,
		0.016079604625701906,
		0.000750000006519258]
	},
	{
		"type":"VEC3",
		"bufferView":79,
		"componentType":5126,
		"count":316,
		"byteOffset":12,
		"min":[-0.9977360963821411,
		-1.0,
		-1.0],
		"max":[0.997738242149353,
		1.0,
		1.0]
	},
	{
		"type":"SCALAR",
		"bufferView":80,
		"componentType":5123,
		"count":1464,
		"byteOffset":0,
		"min":[0],
		"max":[519]
	},
	{
		"type":"VEC3",
		"bufferView":81,
		"componentType":5126,
		"count":520,
		"byteOffset":0,
		"min":[-0.05900000035762787,
		-0.05900000035762787,
		-0.000750000006519258],
		"max":[0.05900000035762787,
		0.05900000035762787,
		0.000750000006519258]
	},
	{
		"type":"VEC3",
		"bufferView":81,
		"componentType":5126,
		"count":520,
		"byteOffset":12,
		"min":[-0.997738242149353,
		-1.0,
		-1.0],
		"max":[0.9977360963821411,
		1.0,
		1.0]
	},
	{
		"type":"SCALAR",
		"bufferView":82,
		"componentType":5123,
		"count":876,
		"byteOffset":0,
		"min":[0],
		"max":[313]
	},
	{
		"type":"VEC3",
		"bufferView":83,
		"componentType":5126,
		"count":314,
		"byteOffset":0,
		"min":[-0.016079604625701906,
		-0.016079604625701906,
		-0.000750000006519258],
		"max":[0.016079619526863099,
		0.016079604625701906,
		0.000750000006519258]
	},
	{
		"type":"VEC3",
		"bufferView":83,
		"componentType":5126,
		"count":314,
		"byteOffset":12,
		"min":[-0.997738242149353,
		-1.0,
		-1.0],
		"max":[0.997738242149353,
		1.0,
		1.0]
	},
	{
		"type":"SCALAR",
		"bufferView":84,
		"componentType":5123,
		"count":1632,
		"byteOffset":0,
		"min":[0],
		"max":[583]
	},
	{
		"type":"VEC3",
		"bufferView":85,
		"componentType":5126,
		"count":584,
		"byteOffset":0,
		"min":[-0.05900000035762787,
		-0.05900000035762787,
		-0.000750000006519258],
		"max":[0.05900000035762787,
		0.05900000035762787,
		0.000750000006519258]
	},
	{
		"type":"VEC3",
		"bufferView":85,
		"componentType":5126,
		"count":584,
		"byteOffset":12,
		"min":[-0.997738242149353,
		-1.0,
		-1.0],
		"max":[0.9994314312934876,
		1.0,
		1.0]
	},
	{
		"type":"SCALAR",
		"bufferView":86,
		"componentType":5123,
		"count":876,
		"byteOffset":0,
		"min":[0],
		"max":[315]
	},
	{
		"type":"VEC3",
		"bufferView":87,
		"componentType":5126,
		"count":316,
		"byteOffset":0,
		"min":[-0.016079604625701906,
		-0.016079604625701906,
		-0.000750000006519258],
		"max":[0.0160796120762825,
		0.016079604625701906,
		0.000750000006519258]
	},
	{
		"type":"VEC3",
		"bufferView":87,
		"componentType":5126,
		"count":316,
		"byteOffset":12,
		"min":[-0.997738242149353,
		-1.0,
		-1.0],
		"max":[0.997738242149353,
		1.0,
		1.0]
	},
	{
		"type":"SCALAR",
		"bufferView":88,
		"componentType":5123,
		"count":1650,
		"byteOffset":0,
		"min":[0],
		"max":[593]
	},
	{
		"type":"VEC3",
		"bufferView":89,
		"componentType":5126,
		"count":594,
		"byteOffset":0,
		"min":[-0.05900000035762787,
		-0.05900000035762787,
		-0.000750000006519258],
		"max":[0.05900000035762787,
		0.05900000035762787,
		0.000750000006519258]
	},
	{
		"type":"VEC3",
		"bufferView":89,
		"componentType":5126,
		"count":594,
		"byteOffset":12,
		"min":[-0.9994314312934876,
		-1.0,
		-1.0],
		"max":[0.997738242149353,
		1.0,
		1.0]
	},
	{
		"type":"SCALAR",
		"bufferView":90,
		"componentType":5123,
		"count":876,
		"byteOffset":0,
		"min":[0],
		"max":[315]
	},
	{
		"type":"VEC3",
		"bufferView":91,
		"componentType":5126,
		"count":316,
		"byteOffset":0,
		"min":[-0.016079604625701906,
		-0.016079604625701906,
		-0.000750000006519258],
		"max":[0.0160796120762825,
		0.016079604625701906,
		0.000750000006519258]
	},
	{
		"type":"VEC3",
		"bufferView":91,
		"componentType":5126,
		"count":316,
		"byteOffset":12,
		"min":[-0.997738242149353,
		-1.0,
		-1.0],
		"max":[0.997738242149353,
		1.0,
		1.0]
	},
	{
		"type":"SCALAR",
		"bufferView":92,
		"componentType":5123,
		"count":1650,
		"byteOffset":0,
		"min":[0],
		"max":[593]
	},
	{
		"type":"VEC3",
		"bufferView":93,
		"componentType":5126,
		"count":594,
		"byteOffset":0,
		"min":[-0.05900000035762787,
		-0.05900000035762787,
		-0.000750000006519258],
		"max":[0.05900000035762787,
		0.05900000035762787,
		0.000750000006519258]
	},
	{
		"type":"VEC3",
		"bufferView":93,
		"componentType":5126,
		"count":594,
		"byteOffset":12,
		"min":[-0.9994314312934876,
		-1.0,
		-1.0],
		"max":[0.997738242149353,
		1.0,
		1.0]
	}],
	"bufferViews":[{
		"buffer":0,
		"byteOffset":0,
		"byteLength":15408,
		"target":34963
	},
	{
		"buffer":0,
		"byteOffset":15408,
		"byteLength":36288,
		"target":34962,
		"byteStride":24
	},
	{
		"buffer":1,
		"byteOffset":0,
		"byteLength":3216
	},
	{
		"buffer":2,
		"byteOffset":0,
		"byteLength":17040,
		"target":34963
	},
	{
		"buffer":2,
		"byteOffset":17040,
		"byteLength":72792,
		"target":34962,
		"byteStride":24
	},
	{
		"buffer":3,
		"byteOffset":0,
		"byteLength":3216
	},
	{
		"buffer":4,
		"byteOffset":0,
		"byteLength":264,
		"target":34963
	},
	{
		"buffer":4,
		"byteOffset":264,
		"byteLength":3072,
		"target":34962,
		"byteStride":32
	},
	{
		"buffer":5,
		"byteOffset":0,
		"byteLength":3216
	},
	{
		"buffer":6,
		"byteOffset":0,
		"byteLength":3216
	},
	{
		"buffer":7,
		"byteOffset":0,
		"byteLength":3216
	},
	{
		"buffer":8,
		"byteOffset":0,
		"byteLength":2292,
		"target":34963
	},
	{
		"buffer":8,
		"byteOffset":2292,
		"byteLength":18144,
		"target":34962,
		"byteStride":24
	},
	{
		"buffer":9,
		"byteOffset":0,
		"byteLength":12,
		"target":34963
	},
	{
		"buffer":9,
		"byteOffset":12,
		"byteLength":96,
		"target":34962,
		"byteStride":24
	},
	{
		"buffer":10,
		"byteOffset":0,
		"byteLength":492,
		"target":34963
	},
	{
		"buffer":10,
		"byteOffset":492,
		"byteLength":3744,
		"target":34962,
		"byteStride":24
	},
	{
		"buffer":11,
		"byteOffset":0,
		"byteLength":1476,
		"target":34963
	},
	{
		"buffer":11,
		"byteOffset":1476,
		"byteLength":6144,
		"target":34962,
		"byteStride":24
	},
	{
		"buffer":12,
		"byteOffset":0,
		"byteLength":3216
	},
	{
		"buffer":13,
		"byteOffset":0,
		"byteLength":5736,
		"target":34963
	},
	{
		"buffer":13,
		"byteOffset":5736,
		"byteLength":18720,
		"target":34962,
		"byteStride":24
	},
	{
		"buffer":14,
		"byteOffset":0,
		"byteLength":1752,
		"target":34963
	},
	{
		"buffer":14,
		"byteOffset":1752,
		"byteLength":7536,
		"target":34962,
		"byteStride":24
	},
	{
		"buffer":15,
		"byteOffset":0,
		"byteLength":3168,
		"target":34963
	},
	{
		"buffer":15,
		"byteOffset":3168,
		"byteLength":13584,
		"target":34962,
		"byteStride":24
	},
	{
		"buffer":16,
		"byteOffset":0,
		"byteLength":1752,
		"target":34963
	},
	{
		"buffer":16,
		"byteOffset":1752,
		"byteLength":7536,
		"target":34962,
		"byteStride":24
	},
	{
		"buffer":17,
		"byteOffset":0,
		"byteLength":2796,
		"target":34963
	},
	{
		"buffer":17,
		"byteOffset":2796,
		"byteLength":11904,
		"target":34962,
		"byteStride":24
	},
	{
		"buffer":18,
		"byteOffset":0,
		"byteLength":1752,
		"target":34963
	},
	{
		"buffer":18,
		"byteOffset":1752,
		"byteLength":7584,
		"target":34962,
		"byteStride":24
	},
	{
		"buffer":19,
		"byteOffset":0,
		"byteLength":2928,
		"target":34963
	},
	{
		"buffer":19,
		"byteOffset":2928,
		"byteLength":12480,
		"target":34962,
		"byteStride":24
	},
	{
		"buffer":20,
		"byteOffset":0,
		"byteLength":1752,
		"target":34963
	},
	{
		"buffer":20,
		"byteOffset":1752,
		"byteLength":7536,
		"target":34962,
		"byteStride":24
	},
	{
		"buffer":21,
		"byteOffset":0,
		"byteLength":3264,
		"target":34963
	},
	{
		"buffer":21,
		"byteOffset":3264,
		"byteLength":14016,
		"target":34962,
		"byteStride":24
	},
	{
		"buffer":22,
		"byteOffset":0,
		"byteLength":1752,
		"target":34963
	},
	{
		"buffer":22,
		"byteOffset":1752,
		"byteLength":7584,
		"target":34962,
		"byteStride":24
	},
	{
		"buffer":23,
		"byteOffset":0,
		"byteLength":3300,
		"target":34963
	},
	{
		"buffer":23,
		"byteOffset":3300,
		"byteLength":14256,
		"target":34962,
		"byteStride":24
	},
	{
		"buffer":24,
		"byteOffset":0,
		"byteLength":1752,
		"target":34963
	},
	{
		"buffer":24,
		"byteOffset":1752,
		"byteLength":7584,
		"target":34962,
		"byteStride":24
	},
	{
		"buffer":25,
		"byteOffset":0,
		"byteLength":3300,
		"target":34963
	},
	{
		"buffer":25,
		"byteOffset":3300,
		"byteLength":14256,
		"target":34962,
		"byteStride":24
	},
	{
		"buffer":26,
		"byteOffset":0,
		"byteLength":1752,
		"target":34963
	},
	{
		"buffer":26,
		"byteOffset":1752,
		"byteLength":7536,
		"target":34962,
		"byteStride":24
	},
	{
		"buffer":27,
		"byteOffset":0,
		"byteLength":3168,
		"target":34963
	},
	{
		"buffer":27,
		"byteOffset":3168,
		"byteLength":13584,
		"target":34962,
		"byteStride":24
	},
	{
		"buffer":28,
		"byteOffset":0,
		"byteLength":1752,
		"target":34963
	},
	{
		"buffer":28,
		"byteOffset":1752,
		"byteLength":7536,
		"target":34962,
		"byteStride":24
	},
	{
		"buffer":29,
		"byteOffset":0,
		"byteLength":2796,
		"target":34963
	},
	{
		"buffer":29,
		"byteOffset":2796,
		"byteLength":11904,
		"target":34962,
		"byteStride":24
	},
	{
		"buffer":30,
		"byteOffset":0,
		"byteLength":1752,
		"target":34963
	},
	{
		"buffer":30,
		"byteOffset":1752,
		"byteLength":7584,
		"target":34962,
		"byteStride":24
	},
	{
		"buffer":31,
		"byteOffset":0,
		"byteLength":2928,
		"target":34963
	},
	{
		"buffer":31,
		"byteOffset":2928,
		"byteLength":12480,
		"target":34962,
		"byteStride":24
	},
	{
		"buffer":32,
		"byteOffset":0,
		"byteLength":1752,
		"target":34963
	},
	{
		"buffer":32,
		"byteOffset":1752,
		"byteLength":7536,
		"target":34962,
		"byteStride":24
	},
	{
		"buffer":33,
		"byteOffset":0,
		"byteLength":3264,
		"target":34963
	},
	{
		"buffer":33,
		"byteOffset":3264,
		"byteLength":14016,
		"target":34962,
		"byteStride":24
	},
	{
		"buffer":34,
		"byteOffset":0,
		"byteLength":1752,
		"target":34963
	},
	{
		"buffer":34,
		"byteOffset":1752,
		"byteLength":7584,
		"target":34962,
		"byteStride":24
	},
	{
		"buffer":35,
		"byteOffset":0,
		"byteLength":3300,
		"target":34963
	},
	{
		"buffer":35,
		"byteOffset":3300,
		"byteLength":14256,
		"target":34962,
		"byteStride":24
	},
	{
		"buffer":36,
		"byteOffset":0,
		"byteLength":1752,
		"target":34963
	},
	{
		"buffer":36,
		"byteOffset":1752,
		"byteLength":7584,
		"target":34962,
		"byteStride":24
	},
	{
		"buffer":37,
		"byteOffset":0,
		"byteLength":3300,
		"target":34963
	},
	{
		"buffer":37,
		"byteOffset":3300,
		"byteLength":14256,
		"target":34962,
		"byteStride":24
	},
	{
		"buffer":38,
		"byteOffset":0,
		"byteLength":1752,
		"target":34963
	},
	{
		"buffer":38,
		"byteOffset":1752,
		"byteLength":7536,
		"target":34962,
		"byteStride":24
	},
	{
		"buffer":39,
		"byteOffset":0,
		"byteLength":3168,
		"target":34963
	},
	{
		"buffer":39,
		"byteOffset":3168,
		"byteLength":13584,
		"target":34962,
		"byteStride":24
	},
	{
		"buffer":40,
		"byteOffset":0,
		"byteLength":1752,
		"target":34963
	},
	{
		"buffer":40,
		"byteOffset":1752,
		"byteLength":7536,
		"target":34962,
		"byteStride":24
	},
	{
		"buffer":41,
		"byteOffset":0,
		"byteLength":2796,
		"target":34963
	},
	{
		"buffer":41,
		"byteOffset":2796,
		"byteLength":11904,
		"target":34962,
		"byteStride":24
	},
	{
		"buffer":42,
		"byteOffset":0,
		"byteLength":1752,
		"target":34963
	},
	{
		"buffer":42,
		"byteOffset":1752,
		"byteLength":7584,
		"target":34962,
		"byteStride":24
	},
	{
		"buffer":43,
		"byteOffset":0,
		"byteLength":2928,
		"target":34963
	},
	{
		"buffer":43,
		"byteOffset":2928,
		"byteLength":12480,
		"target":34962,
		"byteStride":24
	},
	{
		"buffer":44,
		"byteOffset":0,
		"byteLength":1752,
		"target":34963
	},
	{
		"buffer":44,
		"byteOffset":1752,
		"byteLength":7536,
		"target":34962,
		"byteStride":24
	},
	{
		"buffer":45,
		"byteOffset":0,
		"byteLength":3264,
		"target":34963
	},
	{
		"buffer":45,
		"byteOffset":3264,
		"byteLength":14016,
		"target":34962,
		"byteStride":24
	},
	{
		"buffer":46,
		"byteOffset":0,
		"byteLength":1752,
		"target":34963
	},
	{
		"buffer":46,
		"byteOffset":1752,
		"byteLength":7584,
		"target":34962,
		"byteStride":24
	},
	{
		"buffer":47,
		"byteOffset":0,
		"byteLength":3300,
		"target":34963
	},
	{
		"buffer":47,
		"byteOffset":3300,
		"byteLength":14256,
		"target":34962,
		"byteStride":24
	},
	{
		"buffer":48,
		"byteOffset":0,
		"byteLength":1752,
		"target":34963
	},
	{
		"buffer":48,
		"byteOffset":1752,
		"byteLength":7584,
		"target":34962,
		"byteStride":24
	},
	{
		"buffer":49,
		"byteOffset":0,
		"byteLength":3300,
		"target":34963
	},
	{
		"buffer":49,
		"byteOffset":3300,
		"byteLength":14256,
		"target":34962,
		"byteStride":24
	}],
	"buffers":[{
		"uri":"data:application/octet-stream;base64,",
		"byteLength":51696
	},
	{
		"uri":"data:application/octet-stream;base64,",
		"byteLength":3216
	},
	{
		"uri":"data:application/octet-stream;base64,",
		"byteLength":89832
	},
	{
		"uri":"data:application/octet-stream;base64,",
		"byteLength":3216
	},
	{
		"uri":"data:application/octet-stream;base64,",
		"byteLength":3336
	},
	{
		"uri":"data:application/octet-stream;base64,",
		"byteLength":3216
	},
	{
		"uri":"data:application/octet-stream;base64,",
		"byteLength":3216
	},
	{
		"uri":"data:application/octet-stream;base64,",
		"byteLength":3216
	},
	{
		"uri":"data:application/octet-stream;base64,",
		"byteLength":20436
	},
	{
		"uri":"data:application/octet-stream;base64,",
		"byteLength":108
	},
	{
		"uri":"data:application/octet-stream;base64,",
		"byteLength":4236
	},
	{
		"uri":"data:application/octet-stream;base64,",
		"byteLength":7620
	},
	{
		"uri":"data:application/octet-stream;base64,",
		"byteLength":3216
	},
	{
		"uri":"data:application/octet-stream;base64,",
		"byteLength":24456
	},
	{
		"uri":"data:application/octet-stream;base64,",
		"byteLength":9288
	},
	{
		"uri":"data:application/octet-stream;base64,",
		"byteLength":16752
	},
	{
		"uri":"data:application/octet-stream;base64,",
		"byteLength":9288
	},
	{
		"uri":"data:application/octet-stream;base64,",
		"byteLength":14700
	},
	{
		"uri":"data:application/octet-stream;base64,",
		"byteLength":9336
	},
	{
		"uri":"data:application/octet-stream;base64,",
		"byteLength":15408
	},
	{
		"uri":"data:application/octet-stream;base64,",
		"byteLength":9288
	},
	{
		"uri":"data:application/octet-stream;base64,",
		"byteLength":17280
	},
	{
		"uri":"data:application/octet-stream;base64,",
		"byteLength":9336
	},
	{
		"uri":"data:application/octet-stream;base64,",
		"byteLength":17556
	},
	{
		"uri":"data:application/octet-stream;base64,",
		"byteLength":9336
	},
	{
		"uri":"data:application/octet-stream;base64,",
		"byteLength":17556
	},
	{
		"uri":"data:application/octet-stream;base64,",
		"byteLength":9288
	},
	{
		"uri":"data:application/octet-stream;base64,",
		"byteLength":16752
	},
	{
		"uri":"data:application/octet-stream;base64,",
		"byteLength":9288
	},
	{
		"uri":"data:application/octet-stream;base64,",
		"byteLength":14700
	},
	{
		"uri":"data:application/octet-stream;base64,",
		"byteLength":9336
	},
	{
		"uri":"data:application/octet-stream;base64,",
		"byteLength":15408
	},
	{
		"uri":"data:application/octet-stream;base64,",
		"byteLength":9288
	},
	{
		"uri":"data:application/octet-stream;base64,",
		"byteLength":17280
	},
	{
		"uri":"data:application/octet-stream;base64,",
		"byteLength":9336
	},
	{
		"uri":"data:application/octet-stream;base64,",
		"byteLength":17556
	},
	{
		"uri":"data:application/octet-stream;base64,",
		"byteLength":9336
	},
	{
		"uri":"data:application/octet-stream;base64,",
		"byteLength":17556
	},
	{
		"uri":"data:application/octet-stream;base64,",
		"byteLength":9288
	},
	{
		"uri":"data:application/octet-stream;base64,",
		"byteLength":16752
	},
	{
		"uri":"data:application/octet-stream;base64,",
		"byteLength":9288
	},
	{
		"uri":"data:application/octet-stream;base64,",
		"byteLength":14700
	},
	{
		"uri":"data:application/octet-stream;base64,",
		"byteLength":9336
	},
	{
		"uri":"data:application/octet-stream;base64,",
		"byteLength":15408
	},
	{
		"uri":"data:application/octet-stream;base64,",
		"byteLength":9288
	},
	{
		"uri":"data:application/octet-stream;base64,",
		"byteLength":17280
	},
	{
		"uri":"data:application/octet-stream;base64,",
		"byteLength":9336
	},
	{
		"uri":"data:application/octet-stream;base64,",
		"byteLength":17556
	},
	{
		"uri":"data:application/octet-stream;base64,",
		"byteLength":9336
	},
	{
		"uri":"data:application/octet-stream;base64,",
		"byteLength":17556
	}],
	"animations":[{
		"samplers":[{
			"input":3,
			"interpolation":"LINEAR",
			"output":4
		},
		{
			"input":8,
			"interpolation":"LINEAR",
			"output":9
		},
		{
			"input":14,
			"interpolation":"LINEAR",
			"output":15
		},
		{
			"input":16,
			"interpolation":"LINEAR",
			"output":17
		},
		{
			"input":18,
			"interpolation":"LINEAR",
			"output":19
		},
		{
			"input":32,
			"interpolation":"LINEAR",
			"output":33
		}],
		"channels":[{
			"sampler":0,
			"target":{
				"node":2,
				"path":"translation"
			}
		},
		{
			"sampler":1,
			"target":{
				"node":4,
				"path":"translation"
			}
		},
		{
			"sampler":2,
			"target":{
				"node":6,
				"path":"translation"
			}
		},
		{
			"sampler":3,
			"target":{
				"node":7,
				"path":"translation"
			}
		},
		{
			"sampler":4,
			"target":{
				"node":8,
				"path":"translation"
			}
		},
		{
			"sampler":5,
			"target":{
				"node":12,
				"path":"translation"
			}
		}]
	}]
}