<svg width="990" height="990" viewBox="0 0 990 990" fill="none" xmlns="http://www.w3.org/2000/svg">
<path fill-rule="evenodd" clip-rule="evenodd" d="M386 657C382.134 657 379 653.866 379 650V336C379 332.134 382.134 329 386 329C389.866 329 393 332.134 393 336V650C393 653.866 389.866 657 386 657Z" fill="black"/>
<path fill-rule="evenodd" clip-rule="evenodd" d="M408 720C404.134 720 401 716.866 401 713L401 277C401 273.134 404.134 270 408 270C411.866 270 415 273.134 415 277L415 713C415 716.866 411.866 720 408 720Z" fill="black"/>
<path fill-rule="evenodd" clip-rule="evenodd" d="M430 536C426.134 536 423 532.866 423 529L423 325C423 321.134 426.134 318 430 318C433.866 318 437 321.134 437 325L437 529C437 532.866 433.866 536 430 536Z" fill="black"/>
<path fill-rule="evenodd" clip-rule="evenodd" d="M452 585C448.134 585 445 581.866 445 578V408C445 404.134 448.134 401 452 401C455.866 401 459 404.134 459 408V578C459 581.866 455.866 585 452 585Z" fill="black"/>
<path fill-rule="evenodd" clip-rule="evenodd" d="M474 615C470.134 615 467 611.866 467 608L467 438C467 434.134 470.134 431 474 431C477.866 431 481 434.134 481 438L481 608C481 611.866 477.866 615 474 615Z" fill="black"/>
<path fill-rule="evenodd" clip-rule="evenodd" d="M538 586C541.866 586 545 582.866 545 579V409C545 405.134 541.866 402 538 402C534.134 402 531 405.134 531 409V579C531 582.866 534.134 586 538 586Z" fill="black"/>
<path fill-rule="evenodd" clip-rule="evenodd" d="M516 616C519.866 616 523 612.866 523 609L523 439C523 435.134 519.866 432 516 432C512.134 432 509 435.134 509 439L509 609C509 612.866 512.134 616 516 616Z" fill="black"/>
<path fill-rule="evenodd" clip-rule="evenodd" d="M494 630C497.866 630 501 626.866 501 623L501 453C501 449.134 497.866 446 494 446C490.134 446 487 449.134 487 453L487 623C487 626.866 490.134 630 494 630Z" fill="black"/>
<path fill-rule="evenodd" clip-rule="evenodd" d="M363 587C366.866 587 370 583.866 370 580V409C370 405.134 366.866 402 363 402C359.134 402 356 405.134 356 409V580C356 583.866 359.134 587 363 587Z" fill="black"/>
<path fill-rule="evenodd" clip-rule="evenodd" d="M604 658C607.866 658 611 654.866 611 651V337C611 333.134 607.866 330 604 330C600.134 330 597 333.134 597 337V651C597 654.866 600.134 658 604 658Z" fill="black"/>
<path fill-rule="evenodd" clip-rule="evenodd" d="M582 721C585.866 721 589 717.866 589 714V278C589 274.134 585.866 271 582 271C578.134 271 575 274.134 575 278V714C575 717.866 578.134 721 582 721Z" fill="black"/>
<path fill-rule="evenodd" clip-rule="evenodd" d="M560 538C563.866 538 567 534.866 567 531L567 326C567 322.134 563.866 319 560 319C556.134 319 553 322.134 553 326L553 531C553 534.866 556.134 538 560 538Z" fill="black"/>
<path fill-rule="evenodd" clip-rule="evenodd" d="M627 588C623.134 588 620 584.866 620 581V411C620 407.134 623.134 404 627 404C630.866 404 634 407.134 634 411V581C634 584.866 630.866 588 627 588Z" fill="black"/>
</svg>
